<svg width="32" height="32" viewBox="0 0 32 32" fill="none" xmlns="http://www.w3.org/2000/svg">
  <!-- Background circle -->
  <circle cx="16" cy="16" r="16" fill="#3b82f6"/>
  
  <!-- Building/Government symbol -->
  <g fill="#ffffff">
    <!-- Main building structure -->
    <rect x="8" y="12" width="16" height="12" rx="1"/>
    
    <!-- Roof/Dome -->
    <path d="M6 12 L16 6 L26 12" fill="#ffffff"/>
    
    <!-- Windows -->
    <rect x="10" y="14" width="2" height="2"/>
    <rect x="14" y="14" width="2" height="2"/>
    <rect x="18" y="14" width="2" height="2"/>
    <rect x="22" y="14" width="2" height="2"/>
    
    <rect x="10" y="18" width="2" height="2"/>
    <rect x="14" y="18" width="2" height="2"/>
    <rect x="18" y="18" width="2" height="2"/>
    <rect x="22" y="18" width="2" height="2"/>
    
    <!-- Door -->
    <rect x="14" y="20" width="4" height="4" rx="1"/>
    
    <!-- Flag/Emblem -->
    <rect x="15" y="8" width="2" height="4" fill="#ffffff"/>
    <path d="M17 8 L21 9 L17 10 Z" fill="#ffffff"/>
  </g>
  
  <!-- Subtle gradient overlay -->
  <defs>
    <linearGradient id="grad" x1="0%" y1="0%" x2="100%" y2="100%">
      <stop offset="0%" style="stop-color:#3b82f6;stop-opacity:1" />
      <stop offset="100%" style="stop-color:#2563eb;stop-opacity:1" />
    </linearGradient>
  </defs>
  <circle cx="16" cy="16" r="16" fill="url(#grad)" opacity="0.3"/>
</svg>
